<svg xmlns="http://www.w3.org/2000/svg" viewBox="0 0 100 100">
  <rect width="100" height="100" fill="#3A4D5C" rx="0"/>
  <path d="M20,65 L28,65 Q33,52 40,52 L60,52 Q67,52 72,65 L80,65 Q83,65 83,61 L80,51 Q78,44 70,42 L65,30 Q62,25 54,25 L40,25 Q32,25 29,32 L22,46 Q17,47 17,54 L17,61 Q17,65 20,65 Z" fill="#FFFFFF"/>
  <circle cx="34" cy="65" r="9" fill="#3A4D5C"/>
  <circle cx="66" cy="65" r="9" fill="#3A4D5C"/>
  <circle cx="34" cy="65" r="4" fill="#FFFFFF"/>
  <circle cx="66" cy="65" r="4" fill="#FFFFFF"/>
</svg>